<?xml version="1.0" encoding="UTF-8" standalone="no"?><!-- Generator: Gravit.io --><svg xmlns="http://www.w3.org/2000/svg" xmlns:xlink="http://www.w3.org/1999/xlink" style="isolation:isolate" viewBox="0 0 2417.184 372.858" width="2417.184pt" height="372.858pt"><defs><clipPath id="_clipPath_ADh2viEPjK2SQsyHV4RqkeOmzalZqfWI"><rect width="2417.184" height="372.858"/></clipPath></defs><g clip-path="url(#_clipPath_ADh2viEPjK2SQsyHV4RqkeOmzalZqfWI)"><g><path d=" M 363.27 66.049 L 329.18 66.049 L 329.18 363.27 L 265.262 363.27 L 109.727 160.862 L 109.727 297.221 L 143.817 297.221 L 143.817 363.27 L 0 363.27 L 0 297.221 L 34.09 297.221 L 34.09 66.049 L 0 66.049 L 0 0 L 109.727 0 L 254.609 188.56 L 254.609 66.049 L 220.519 66.049 L 220.519 0 L 364.335 0 C 363.27 0 363.27 66.049 363.27 66.049 L 363.27 66.049 Z  M 591.246 235.433 C 591.246 240.76 591.246 246.086 591.246 252.478 L 432.515 252.478 C 428.254 303.613 447.429 318.527 476.193 318.527 C 500.695 318.527 518.805 302.547 518.805 276.98 L 586.985 276.98 C 585.919 321.723 562.483 372.858 471.931 372.858 C 382.446 372.858 340.899 307.874 340.899 235.433 C 340.899 170.449 383.511 101.204 470.866 101.204 C 553.96 101.204 591.246 159.796 591.246 235.433 Z  M 983.279 170.449 L 959.843 170.449 L 901.251 367.531 L 823.483 367.531 L 787.263 259.935 L 754.238 367.531 L 675.405 367.531 L 610.422 170.449 L 586.985 170.449 L 586.985 103.335 L 724.409 103.335 L 724.409 170.449 L 690.32 170.449 L 726.54 274.849 L 773.414 103.335 L 816.026 103.335 L 873.553 274.849 L 904.447 170.449 L 870.357 170.449 L 870.357 103.335 L 985.41 103.335 C 983.279 103.335 983.279 170.449 983.279 170.449 L 983.279 170.449 Z  M 1080.222 172.58 C 1080.222 182.168 1087.679 188.56 1113.247 196.017 L 1150.533 207.735 C 1184.623 219.453 1226.17 243.956 1226.17 290.829 C 1226.17 345.16 1185.688 371.793 1134.553 371.793 C 1094.071 371.793 1063.177 352.617 1054.655 343.029 L 1054.655 365.401 L 987.541 365.401 L 987.541 273.784 L 1053.59 273.784 C 1055.72 303.613 1082.353 319.592 1105.79 319.592 C 1124.965 319.592 1134.553 311.07 1134.553 301.482 C 1134.553 289.764 1127.096 282.307 1094.071 271.654 L 1061.047 261 C 1028.022 250.347 990.736 225.845 990.736 181.102 C 990.736 126.772 1038.675 100.139 1079.157 100.139 C 1121.769 100.139 1142.01 111.857 1152.663 123.576 L 1152.663 103.335 L 1219.778 103.335 L 1219.778 185.364 L 1150.533 185.364 C 1149.467 162.992 1128.161 153.404 1105.79 153.404 C 1087.679 154.47 1080.222 161.927 1080.222 172.58 L 1080.222 172.58 Z  M 1627.791 170.449 L 1604.354 170.449 L 1545.762 367.531 L 1467.994 367.531 L 1431.774 259.935 L 1398.749 367.531 L 1319.917 367.531 L 1254.933 170.449 L 1231.496 170.449 L 1231.496 103.335 L 1368.921 103.335 L 1368.921 170.449 L 1334.831 170.449 L 1371.051 274.849 L 1416.86 103.335 L 1459.472 103.335 L 1516.999 274.849 L 1547.893 170.449 L 1512.737 170.449 L 1512.737 103.335 L 1627.791 103.335 L 1627.791 170.449 L 1627.791 170.449 Z  M 1870.681 235.433 C 1870.681 240.76 1870.681 246.086 1870.681 252.478 L 1713.015 252.478 C 1708.754 303.613 1727.93 318.527 1756.693 318.527 C 1781.195 318.527 1799.305 302.547 1799.305 276.98 L 1867.485 276.98 C 1866.42 321.723 1841.918 372.858 1752.432 372.858 C 1661.881 372.858 1620.334 307.874 1620.334 235.433 C 1620.334 170.449 1664.011 101.204 1751.366 101.204 C 1834.46 101.204 1870.681 158.731 1870.681 235.433 Z  M 2130.616 234.368 C 2130.616 239.694 2130.616 245.021 2130.616 251.413 L 1972.95 251.413 C 1968.689 302.547 1987.865 317.462 2016.628 317.462 C 2041.13 317.462 2059.24 301.482 2059.24 275.915 L 2127.42 275.915 C 2126.355 320.658 2101.853 371.793 2012.367 371.793 C 1921.816 371.793 1880.269 306.809 1880.269 234.368 C 1880.269 169.384 1923.946 100.139 2011.302 100.139 C 2094.396 100.139 2130.616 157.666 2130.616 234.368 Z  M 2417.184 366.466 L 2338.351 366.466 L 2256.322 258.87 L 2229.69 279.111 L 2229.69 300.417 L 2253.126 300.417 L 2253.126 367.531 L 2130.616 367.531 L 2130.616 301.482 L 2154.053 301.482 L 2154.053 67.114 L 2119.963 67.114 L 2119.963 0 L 2229.69 0 L 2229.69 210.931 L 2285.086 170.449 L 2250.996 170.449 L 2250.996 103.335 L 2396.943 103.335 L 2396.943 170.449 L 2373.506 170.449 L 2315.98 213.062 L 2382.029 299.352 L 2416.119 299.352 C 2417.184 300.417 2417.184 366.466 2417.184 366.466 L 2417.184 366.466 Z  M 1972.95 208.8 L 2059.24 208.8 C 2059.24 171.515 2034.738 156.6 2017.693 156.6 C 1996.387 156.6 1974.016 173.645 1972.95 208.8 Z  M 1713.015 208.8 L 1799.305 208.8 C 1799.305 171.515 1774.803 156.6 1756.693 156.6 C 1736.452 157.666 1714.081 174.711 1713.015 208.8 L 1713.015 208.8 L 1713.015 208.8 Z  M 433.58 209.866 L 519.87 209.866 C 519.87 172.58 495.368 157.666 477.258 157.666 C 455.952 157.666 434.646 174.711 433.58 209.866 L 433.58 209.866 Z " fill="rgb(255,255,255)"/></g></g></svg>